<svg width="271" height="247" viewBox="0 0 271 247" fill="none" xmlns="http://www.w3.org/2000/svg">
<path d="M92.8608 18.0976C93.4573 18.2644 94.0539 18.4312 94.6685 18.603C100.211 20.2534 104.825 22.6437 109.375 26.2427C111.031 26.9998 111.031 26.9998 112.424 27.4129C112.361 27.9303 112.297 28.4477 112.232 28.9808C112.841 29.2525 113.449 29.5242 114.077 29.8041C116.156 30.8306 118.045 31.9004 120.007 33.1185C123.091 35.0008 126.143 36.2818 129.551 37.4735C128.748 38.2964 127.93 39.1055 127.107 39.9088C126.653 40.3608 126.199 40.8128 125.731 41.2786C123.64 42.7453 122.684 43.0112 120.13 42.6828C118.243 41.2812 116.622 39.9167 114.928 38.3139C111.276 35.0103 107.821 32.2312 103.359 30.0548C101.815 29.2933 101.815 29.2933 100.341 28.2917C98.7747 27.2834 97.3329 26.7202 95.5658 26.1387C93.4792 25.4473 91.5383 24.7002 89.5377 23.7759C77.6957 19.1726 64.4585 20.3876 52.9643 25.2955C44.9786 28.9983 37.2461 34.5446 31.6735 41.3709C31.2674 41.8452 30.8613 42.3195 30.4429 42.8082C22.9936 52.1449 19.99 63.9331 20.8814 75.7246C21.3031 78.5153 21.8449 81.2479 22.4469 84.0051C22.5913 84.8578 22.7356 85.7105 22.8843 86.5891C23.9869 92.9076 26.169 98.1087 28.9919 103.836C29.5782 105.032 30.1607 106.229 30.7397 107.428C31.3182 108.625 31.9056 109.818 32.5028 111.007C33.6477 113.373 34.4818 115.244 34.6851 117.879C33.7921 120.317 32.4298 121.399 30.4286 123.033C29.7685 123.58 29.1085 124.128 28.4285 124.692C27.9173 125.101 27.4062 125.509 26.8795 125.929C24.8969 125.389 24.0021 124.996 22.778 123.313C21.7717 121.347 20.7693 119.381 19.7936 117.4C19.2644 116.385 19.2644 116.385 18.7245 115.351C16.7345 111.379 15.6871 108.434 16.0118 103.905C16.036 103.179 16.0602 102.454 16.0852 101.707C16.1181 101.028 16.1511 100.349 16.185 99.6488C16.3117 96.2106 16.1474 92.9317 15.704 89.5215C15.5774 87.9362 15.5774 87.9362 15.9624 84.8004C15.4433 84.7367 14.9243 84.6729 14.3894 84.6073C14.3163 83.87 14.2432 83.1327 14.1679 82.3731C14.0704 81.4153 13.9729 80.4576 13.8725 79.4708C13.7765 78.5173 13.6806 77.5639 13.5817 76.5815C13.3842 74.2225 13.3842 74.2225 12.6873 72.4618C13.1613 63.013 14.1247 53.0352 18.512 44.5295C19.0311 44.5932 19.5502 44.6569 20.085 44.7226C20.272 44.1383 20.459 43.554 20.6517 42.952C21.3528 40.8994 21.3528 40.8994 22.4281 38.6442C22.9471 38.7079 23.4662 38.7716 24.001 38.8373C24.1325 38.2862 24.264 37.7351 24.3995 37.1673C26.8257 31.1584 33.9109 26.3478 39.4891 23.2322C40.6412 22.5874 40.6412 22.5874 41.8165 21.9295C48.1273 18.5798 54.598 15.5382 61.8796 16.4322C61.9431 15.9148 62.0066 15.3974 62.0721 14.8643C72.6693 13.9112 82.6704 15.2352 92.8608 18.0976Z" fill="#BB8A52" fill-opacity="0.2"/>
<path d="M98.9752 13.3561C99.7729 13.6571 100.571 13.9582 101.392 14.2684C111.159 18.1797 119.392 24.8313 126.727 32.2561C128.59 33.831 129.869 34.4442 132.25 34.9485C132.913 34.8453 133.576 34.7421 134.259 34.6357C136.279 34.6474 136.279 34.6474 138.247 36.2941C139.211 37.3912 139.211 37.3912 140.195 38.5103C142.901 41.5597 142.901 41.5597 145.967 44.2268C147.844 45.708 148.959 47.1565 150.266 49.1468C150.666 49.7467 151.065 50.3467 151.477 50.9648C152.443 52.5474 152.443 52.5474 153.037 54.2119C151.771 53.7939 150.505 53.3758 149.201 52.9451C149.264 52.4277 149.328 51.9103 149.393 51.3772C148.874 51.3135 148.355 51.2497 147.82 51.1841C147.884 50.6667 147.947 50.1493 148.013 49.6162C147.494 49.5525 146.974 49.4887 146.44 49.423C146.117 49.9086 145.794 50.3941 145.461 50.8944C145.524 50.377 145.588 49.8596 145.653 49.3265C145.046 49.0386 144.44 48.7507 143.814 48.4541C143.187 48.0653 142.56 47.6764 141.913 47.2757C141.749 46.4678 141.585 45.6598 141.415 44.8273C140.896 44.7636 140.377 44.6999 139.843 44.6342C138.825 43.1167 138.825 43.1167 137.77 41.1966C137.417 40.5625 137.065 39.9284 136.702 39.2751C136.435 38.7828 136.168 38.2904 135.894 37.7832C134.115 38.4127 133.026 39.2547 131.576 40.4361C130.861 39.8231 130.146 39.2101 129.409 38.5785C128.9 39.1069 128.39 39.6352 127.865 40.1795C125.84 42.0577 123.818 43.3393 121.464 44.7649C119.456 46.846 119.456 46.846 118.571 49.6319C117.356 52.2181 117.356 52.2181 115.773 52.919C115.193 53.0776 114.614 53.2363 114.017 53.3997C113.399 54.0131 112.78 54.6265 112.142 55.2584C111.564 55.8111 110.986 56.3638 110.39 56.9332C109.611 56.8376 108.833 56.742 108.031 56.6435C106.943 57.8253 105.86 59.0124 104.809 60.2267C102.83 62.2582 100.563 63.6836 98.1947 65.2274C93.071 68.4987 93.071 68.4987 89.9905 73.5268C88.3403 74.3686 88.3403 74.3686 86.652 74.7084C86.1646 74.386 85.6773 74.0635 85.1752 73.7313C84.7254 74.9809 84.7254 74.9809 84.2665 76.2557C82.8289 79.2318 82.3549 79.653 79.4937 80.9913C76.4503 83.134 76.4503 83.134 74.0949 85.9485C72.7217 87.9559 70.878 88.7659 68.8044 90.0238C65.6549 92.6514 63.5277 94.8621 62.1439 98.7552C62.3081 99.5631 62.4723 100.371 62.6416 101.204C61.5213 100.672 61.5213 100.672 60.3783 100.13C58.7621 100.887 58.7621 100.887 57.1954 102.077C56.6512 102.46 56.1071 102.844 55.5464 103.239C55.1336 103.542 54.7207 103.845 54.2953 104.158C54.4596 104.966 54.6238 105.774 54.7931 106.606C54.3445 106.37 53.8959 106.135 53.4337 105.892C51.7483 105.246 51.7483 105.246 50.2647 106.1C48.8756 107.486 48.8756 107.486 48.9167 109.764C48.5175 112.202 48.5175 112.202 46.2746 114.214C45.5582 114.684 44.8418 115.154 44.1038 115.638C43.9527 113.65 43.9527 113.65 43.7986 111.622C43.216 112.076 42.6333 112.529 42.0331 112.997C41.2862 112.643 40.5393 112.288 39.7698 111.923C40.4471 111.361 41.1243 110.799 41.822 110.22C46.1508 106.607 50.432 102.993 54.4726 99.0566C58.6286 95.021 63.05 91.3456 67.5029 87.6446C69.4905 85.9911 71.4436 84.3099 73.3614 82.5759C76.535 79.7068 79.8099 76.9613 83.0849 74.2084C85.8219 71.9054 88.5292 69.5741 91.2149 67.2115C94.9727 63.9307 98.8916 60.8961 102.861 57.8769C104.974 56.287 104.974 56.287 106.746 54.0985C107.265 54.1622 107.784 54.226 108.319 54.2916C108.549 53.8788 108.779 53.4659 109.016 53.0405C110.657 50.8403 112.598 49.4608 114.801 47.8262C116.262 46.7427 117.703 45.6328 119.105 44.4752C119.168 43.9578 119.232 43.4404 119.297 42.9073C120.699 42.273 122.107 41.6519 123.519 41.0383C124.711 40.1413 125.89 39.2273 127.05 38.2888C125.888 37.7569 125.888 37.7569 124.702 37.2142C123.675 36.737 122.647 36.2595 121.619 35.7819C121.11 35.5496 120.601 35.3173 120.076 35.078C117.108 33.6909 114.615 32.2083 112.09 30.0859C111.602 29.7634 111.115 29.441 110.613 29.1088C110.677 28.5914 110.74 28.074 110.806 27.5409C110.28 27.3943 109.755 27.2478 109.213 27.0967C107.035 26.298 105.176 25.2552 103.185 24.078C90.3646 16.6328 75.029 15.2115 60.4533 14.9923C60.3898 15.5097 60.3263 16.0271 60.2608 16.5602C59.3633 16.7208 58.4657 16.8814 57.5409 17.0469C49.8176 18.5238 43.544 20.4803 36.8914 24.8315C35.9535 25.3918 35.9535 25.3918 34.9966 25.9635C29.8747 29.1516 25.0047 33.465 22.3823 38.9653C21.8632 38.9016 21.3441 38.8378 20.8093 38.7722C20.6223 39.3565 20.4353 39.9408 20.2426 40.5428C19.5415 42.5953 19.5415 42.5953 18.4663 44.8506C17.9472 44.7869 17.4281 44.7231 16.8933 44.6575C16.7864 45.1336 16.6796 45.6098 16.5695 46.1004C16.4258 46.726 16.2821 47.3515 16.1341 47.996C15.9931 48.6157 15.8522 49.2354 15.707 49.8739C15.2405 51.6164 15.2405 51.6164 14.1652 53.8717C13.5883 56.8808 13.2375 59.9223 12.8496 62.9609C12.7317 63.7865 12.6139 64.6122 12.4925 65.4629C11.9004 70.0945 11.7962 73.9606 13.0057 78.4922C13.4885 80.6622 13.2063 82.5774 12.7707 84.7353C13.2898 84.799 13.8089 84.8627 14.3437 84.9284C15.2646 91.8013 16.0584 98.7966 14.987 105.697C14.1131 106.378 14.1131 106.378 13.2215 107.072C6.4445 87.6324 1.20675 66.1155 10.3988 46.3468C14.3748 38.6851 19.2474 32.5337 25.4954 26.6153C26.3748 25.6893 26.3748 25.6893 27.2719 24.7446C47.1675 6.87056 74.5248 2.85597 98.9752 13.3561Z" fill="#BB8A52" fill-opacity="0.2"/>
<path d="M102.747 20.3258C103.545 20.6269 104.342 20.9279 105.164 21.2381C114.931 25.1494 123.164 31.8011 130.499 39.2259C132.362 40.8007 133.641 41.414 136.022 41.9183C136.685 41.815 137.348 41.7118 138.031 41.6055C140.05 41.6172 140.05 41.6172 142.019 43.2639C142.983 44.3609 142.983 44.3609 143.967 45.4801C146.683 48.5384 146.683 48.5384 149.758 51.2176C151.541 52.618 152.524 53.8778 153.729 55.7803C156.914 60.6234 160.405 65.1165 164.327 69.3879C166.514 71.8073 168.523 74.303 170.479 76.9104C171.004 77.6067 171.528 78.303 172.068 79.0203C173.148 80.4637 174.219 81.9135 175.283 83.369C175.805 84.0568 176.327 84.7446 176.865 85.4532C177.561 86.3918 177.561 86.3918 178.27 87.3494C179.686 88.8544 179.686 88.8544 181.691 88.8244C184.034 88.3211 186.126 87.6079 188.351 86.7205C189.232 86.3731 190.113 86.0256 191.021 85.6676C191.958 85.2925 192.894 84.9173 193.859 84.5308C195.327 83.9522 196.796 83.3735 198.264 82.7961C199.258 82.4052 200.251 82.0137 201.244 81.6216C205.931 79.7716 210.631 77.9607 215.343 76.1772C216.04 75.9091 216.738 75.641 217.457 75.3648C228.698 71.1209 228.698 71.1209 233.693 72.2134C232.842 92.5302 223.517 123.032 208.689 137.557C206.193 139.839 203.646 142.057 201.074 144.254C199.347 145.731 197.645 147.229 195.954 148.748C192.976 151.415 189.955 154.031 186.926 156.641C185.219 158.128 183.533 159.633 181.851 161.147C177.713 164.844 173.41 168.338 169.114 171.849C168.199 172.601 168.199 172.601 167.265 173.369C166.714 173.819 166.164 174.27 165.596 174.733C164.22 175.845 164.22 175.845 163.3 177.365C175.157 180.952 186.991 182.907 199.258 184.416C199.995 184.509 200.731 184.602 201.489 184.697C203.614 184.963 205.741 185.216 207.868 185.463C208.506 185.542 209.145 185.621 209.802 185.703C215.731 186.357 219.681 185.432 224.775 182.227C229.431 179.39 234.173 176.77 239.024 174.278C239.663 173.939 240.302 173.6 240.961 173.251C244.803 171.304 247.604 170.35 251.932 170.74C253.514 172.758 252.184 177.211 251.891 179.681C250.846 187.417 249.108 195.003 247.371 202.608C247.225 203.258 247.079 203.908 246.929 204.578C246.502 206.467 246.063 208.353 245.62 210.239C245.493 210.801 245.367 211.364 245.236 211.943C244.282 215.898 242.762 219.138 240.764 222.685C236.859 221.82 234.359 220.147 231.414 217.559C230.981 217.191 230.547 216.823 230.101 216.445C227.802 214.494 225.536 212.508 223.276 210.513C222.833 210.13 222.39 209.747 221.934 209.352C221.09 208.622 220.254 207.881 219.428 207.13C216.411 204.53 214.266 204.086 210.347 203.831C208.18 203.993 206.084 204.204 203.937 204.499C203.332 204.576 202.726 204.653 202.103 204.732C200.175 204.979 198.248 205.234 196.321 205.491C193.807 205.82 191.292 206.144 188.776 206.467C188.156 206.547 187.536 206.628 186.898 206.711C181.643 207.38 176.38 207.898 171.102 208.348C168.249 208.403 168.249 208.403 165.742 209.495C163.633 209.616 161.533 209.701 159.422 209.763C153.508 209.972 147.633 210.342 141.749 210.972C138.521 211.295 135.527 211.428 132.298 211.077C122.172 210.194 116.429 214.294 108.936 220.517C106.984 222.162 105.056 223.83 103.146 225.524C101.315 227.049 101.315 227.049 98.763 228.327C94.2613 227.373 90.9969 222.918 87.8319 219.823C87.2434 219.248 87.2434 219.248 86.643 218.661C81.2351 213.351 76.0116 207.892 70.8836 202.315C68.9075 200.169 66.8928 198.062 64.8647 195.965C58.2585 189.104 51.8577 182.057 45.6267 174.856C44.2193 173.237 42.7918 171.64 41.3517 170.05C35.8559 163.937 30.5358 157.693 25.4492 151.238C25.0917 150.786 24.7343 150.334 24.366 149.868C21.2179 145.835 21.2179 145.835 21.1641 142.654C21.9027 139.573 23.1305 138.411 25.436 136.334C26.5434 135.151 26.5434 135.151 26.3385 133.592C25.9562 131.727 25.3497 130.376 24.4493 128.7C23.9713 127.792 23.9713 127.792 23.4836 126.865C23.1409 126.219 22.7982 125.573 22.4451 124.907C17.4968 115.302 13.392 105.655 10.9859 95.1011C10.8639 94.5664 10.7419 94.0318 10.6161 93.481C7.23149 77.1555 9.79109 59.8587 18.5339 45.7175C21.6221 41.169 25.2845 37.3575 29.267 33.5851C30.1464 32.659 30.1464 32.659 31.0435 31.7143C50.9392 13.8403 78.2965 9.82572 102.747 20.3258Z" fill="#BB8A52" fill-opacity="0.1"/>
<path d="M93.9129 24.0887C95.4402 24.6454 96.969 25.1981 98.4995 25.746C102.33 27.2016 105.018 28.8466 108.183 31.4111C108.981 31.8507 109.779 32.2903 110.601 32.7432C113.701 34.5097 116.173 36.7805 118.749 39.2239C119.433 39.861 119.433 39.861 120.13 40.5109C121.24 41.5464 122.345 42.5878 123.448 43.6304C120.592 46.2386 117.731 48.841 114.856 51.4283C114.373 51.8635 113.891 52.2987 113.394 52.747C111.437 54.4287 109.411 55.9969 107.366 57.571C105.048 59.3567 102.734 61.1455 100.42 62.9351C99.8187 63.3973 99.2176 63.8594 98.5982 64.3356C95.0919 67.0525 91.7248 69.8648 88.4372 72.8406C86.2467 74.812 83.9907 76.7024 81.7317 78.5949C74.8716 84.3729 68.1217 90.2472 61.509 96.3052C57.962 99.5448 54.3256 102.667 50.6611 105.774C47.7322 108.336 44.9566 111.042 42.1908 113.777C40.5187 115.279 38.948 116.337 36.9543 117.361C33.6093 111.55 30.5693 105.723 27.9648 99.5465C27.5546 98.6458 27.1445 97.745 26.7219 96.817C25.2959 93.42 24.5796 89.9713 23.8951 86.3643C23.7083 85.4343 23.7083 85.4343 23.5177 84.4855C20.6255 69.774 22.118 57.0832 30.2475 44.229C33.7137 39.4972 38.048 35.746 42.6311 32.1158C43.24 31.6325 43.8488 31.1493 44.4762 30.6514C58.595 20.2083 77.6156 16.5757 93.9129 24.0887Z" fill="#FBFDF8"/>
<path d="M224.648 82.6391C225.167 82.7029 225.686 82.7666 226.221 82.8323C225.767 88.5125 224.524 93.4685 222.515 98.7899C222.246 99.5157 221.978 100.241 221.701 100.989C216.159 115.742 210.287 126.785 198.176 137.131C196.449 138.609 194.746 140.107 193.055 141.625C190.078 144.293 187.057 146.909 184.028 149.519C182.316 151.011 180.622 152.518 178.933 154.035C175.51 157.091 172.009 160.046 168.479 162.978C167.88 163.481 167.281 163.984 166.664 164.502C163.015 167.535 159.304 170.251 155.298 172.799C155.051 167.497 155.051 167.497 156.26 164.959C157.949 164.62 157.949 164.62 159.503 164.562C159.889 163.559 160.276 162.556 160.674 161.522C161.712 161.65 162.751 161.777 163.82 161.909C164.054 161.478 164.288 161.047 164.529 160.603C166.088 158.561 167.915 157.644 170.096 156.313C170.628 155.197 170.628 155.197 171.171 154.058C172.889 153.047 172.889 153.047 174.956 152.086C177.04 151.106 178.773 150.265 180.592 148.849C181.371 148.944 182.15 149.04 182.952 149.138C183.075 148.57 183.199 148.001 183.326 147.415C184.49 144.681 185.892 143.888 188.383 142.295C194.027 138.578 194.027 138.578 198.44 133.533C198.959 133.597 199.478 133.661 200.013 133.726C200.593 132.222 200.593 132.222 201.185 130.687C201.963 130.783 202.742 130.878 203.544 130.977C203.639 130.201 203.735 129.425 203.833 128.625C204.352 128.689 204.871 128.752 205.406 128.818C205.533 127.783 205.66 126.748 205.791 125.682C206.31 125.746 206.829 125.81 207.364 125.875C207.523 124.582 207.681 123.288 207.845 121.956C207.098 121.601 206.351 121.247 205.582 120.882C204.443 119.44 204.443 119.44 203.282 117.665C202.869 117.04 202.456 116.415 202.031 115.771C201.046 114.244 200.066 112.714 199.089 111.182C197.529 108.731 197.529 108.731 195.723 106.492C194.095 104.415 192.762 102.28 191.376 100.039C189.605 97.6658 188.01 95.7103 185.757 93.7793C185.821 93.2619 185.884 92.7445 185.95 92.2114C184.975 91.5665 184.001 90.9216 182.996 90.2572C183.06 89.7398 183.124 89.2224 183.189 88.6893C185.477 89.3642 185.477 89.3642 187.812 90.0527C187.748 90.5701 187.685 91.0875 187.619 91.6206C190.334 91.8665 193.05 92.096 195.766 92.3225C196.922 92.4275 196.922 92.4275 198.102 92.5347C198.844 92.595 199.585 92.6552 200.349 92.7173C201.031 92.7761 201.714 92.8349 202.417 92.8955C204.438 92.9918 204.438 92.9918 206.784 91.5864C209.102 91.2359 211.421 90.995 213.753 90.7542C214.404 90.6033 215.054 90.4523 215.724 90.2968C216.079 89.5526 216.434 88.8083 216.799 88.0416C220.496 86.1082 220.496 86.1082 222.594 86.3657C223.272 85.1359 223.949 83.9062 224.648 82.6391Z" fill="#BB8A52" fill-opacity="0.2"/>
<path d="M249.245 162.919C250.826 164.936 249.496 169.39 249.203 171.859C248.158 179.596 246.421 187.182 244.683 194.786C244.464 195.761 244.464 195.761 244.241 196.756C243.814 198.645 243.375 200.531 242.932 202.417C242.806 202.98 242.679 203.542 242.549 204.122C241.595 208.077 240.074 211.316 238.076 214.864C235.802 214.286 235.802 214.286 233.454 213.501C233.258 212.951 233.062 212.402 232.86 211.836C234.677 212.059 236.493 212.282 238.365 212.512C238.428 211.925 238.491 211.338 238.556 210.733C238.643 209.96 238.731 209.187 238.821 208.39C238.906 207.625 238.991 206.86 239.078 206.072C239.382 204.156 239.814 202.614 240.596 200.849C241.115 200.913 241.634 200.977 242.169 201.043C242.645 197.162 243.121 193.281 243.612 189.283C242.542 189.415 241.473 189.546 240.37 189.681C240.015 190.425 239.66 191.17 239.295 191.936C238.776 191.873 238.257 191.809 237.722 191.743C237.658 192.261 237.595 192.778 237.529 193.311C232.912 195.68 229.622 196.296 224.56 194.902C220.04 192.693 217.83 189.395 215.972 184.795C215.845 184.353 215.718 183.911 215.587 183.455C214.03 183.264 212.473 183.073 210.868 182.876C211.401 181.759 211.401 181.759 211.944 180.62C211.496 180.577 211.048 180.534 210.587 180.489C205.928 180.039 201.27 179.582 196.613 179.122C194.874 178.951 193.136 178.781 191.397 178.613C188.898 178.372 186.4 178.125 183.902 177.877C183.124 177.803 182.346 177.729 181.545 177.652C180.819 177.579 180.093 177.506 179.345 177.431C178.707 177.368 178.069 177.306 177.412 177.242C175.669 176.962 175.669 176.962 174.049 176.293C172.486 175.568 172.486 175.568 170.465 176.671C165.187 178.323 159.485 176.928 154.337 175.139C155.347 172.874 156.392 171.411 158.199 169.694C161.484 168.47 162.906 169.198 166.085 170.435C175.121 173.81 184.335 175.094 193.859 176.22C196.103 176.487 198.345 176.771 200.587 177.056C202.027 177.232 203.467 177.407 204.907 177.58C205.902 177.707 205.902 177.707 206.917 177.837C212.94 178.528 216.902 177.667 222.087 174.406C226.799 171.513 231.63 168.949 236.582 166.487C237.254 166.152 237.926 165.817 238.619 165.472C245.212 162.213 245.212 162.213 249.245 162.919Z" fill="#BB8A52" fill-opacity="0.2"/>
</svg>
